# xmcd
#
# Track frame offsets: 
#        150
#        16967
#        35375
#        57700
#        76137
#        91867
#        101617
#        124452
#        136792
#        160562
#        181960
#        198232
#        222075
#        237605
#        257362
#        273152
#        275060
#        297445
#        301987
#
# Disc length: 4189 seconds
#
# Revision: 0
# Processed by: cddbd v1.5.2PL0 Copyright (c) Steve Scherf et al.
# Submitted via: ExactAudioCopy v1.0b4
#
DISCID=0a105b13
DTITLE=Gregor Hilden - Sweet Rain
DYEAR=2004
DGENRE=Blues
TTITLE0=Ocean breeze motel
TTITLE1=Slado day
TTITLE2=The ghetto
TTITLE3=Song for Larry C.
TTITLE4=Little funky thang
TTITLE5=Apostle
TTITLE6='59 Blues Affair
TTITLE7=Rock candy
TTITLE8=Ode to Billy
TTITLE9=ProudPinto
TTITLE10=New York blues
TTITLE11=Goodbye pork pie hat
TTITLE12=Westcoast blues
TTITLE13=Crazy town shuffle
TTITLE14=Sweet rain
TTITLE15=Welcome
TTITLE16=Beale street strut
TTITLE17=Intro
TTITLE18=Harlem stomp
EXTD=
EXTT0=
EXTT1=
EXTT2=
EXTT3=
EXTT4=
EXTT5=
EXTT6=
EXTT7=
EXTT8=
EXTT9=
EXTT10=
EXTT11=
EXTT12=
EXTT13=
EXTT14=
EXTT15=
EXTT16=
EXTT17=
EXTT18=
PLAYORDER=
